<svg width="123" height="25" viewBox="0 0 123 25" fill="none" xmlns="http://www.w3.org/2000/svg">
<path d="M14.3711 10.2695C14.3711 13.0898 13.5664 15.25 11.957 16.75C10.3555 18.25 8.03906 19 5.00781 19H0.15625V1.86719H5.53516C8.33203 1.86719 10.5039 2.60547 12.0508 4.08203C13.5977 5.55859 14.3711 7.62109 14.3711 10.2695ZM10.5977 10.3633C10.5977 6.68359 8.97266 4.84375 5.72266 4.84375H3.78906V16H5.34766C8.84766 16 10.5977 14.1211 10.5977 10.3633ZM27.6752 14.2422C27.6752 15.7891 27.1166 17.0078 25.9994 17.8984C24.89 18.7891 23.3431 19.2344 21.3587 19.2344C19.5306 19.2344 17.9134 18.8906 16.5072 18.2031V14.8281C17.6634 15.3438 18.64 15.707 19.4369 15.918C20.2416 16.1289 20.9759 16.2344 21.64 16.2344C22.4369 16.2344 23.0462 16.082 23.4681 15.7773C23.8978 15.4727 24.1127 15.0195 24.1127 14.418C24.1127 14.082 24.0189 13.7852 23.8314 13.5273C23.6439 13.2617 23.3666 13.0078 22.9994 12.7656C22.64 12.5234 21.9017 12.1367 20.7845 11.6055C19.7377 11.1133 18.9525 10.6406 18.4291 10.1875C17.9056 9.73438 17.4877 9.20703 17.1752 8.60547C16.8627 8.00391 16.7064 7.30078 16.7064 6.49609C16.7064 4.98047 17.2181 3.78906 18.2416 2.92188C19.2728 2.05469 20.6947 1.62109 22.5072 1.62109C23.3978 1.62109 24.2455 1.72656 25.0502 1.9375C25.8627 2.14844 26.7103 2.44531 27.5931 2.82812L26.4212 5.65234C25.5072 5.27734 24.7494 5.01562 24.1478 4.86719C23.5541 4.71875 22.9681 4.64453 22.39 4.64453C21.7025 4.64453 21.1752 4.80469 20.808 5.125C20.4408 5.44531 20.2572 5.86328 20.2572 6.37891C20.2572 6.69922 20.3314 6.98047 20.4798 7.22266C20.6283 7.45703 20.8627 7.6875 21.183 7.91406C21.5111 8.13281 22.2806 8.53125 23.4916 9.10938C25.0931 9.875 26.1908 10.6445 26.7845 11.418C27.3783 12.1836 27.6752 13.125 27.6752 14.2422ZM43.5723 4.64453C42.2052 4.64453 41.1466 5.16016 40.3966 6.19141C39.6466 7.21484 39.2716 8.64453 39.2716 10.4805C39.2716 14.3008 40.7052 16.2109 43.5723 16.2109C44.7755 16.2109 46.2325 15.9102 47.9434 15.3086V18.3555C46.5372 18.9414 44.9669 19.2344 43.2325 19.2344C40.7403 19.2344 38.8341 18.4805 37.5137 16.9727C36.1934 15.457 35.5333 13.2852 35.5333 10.457C35.5333 8.67578 35.8575 7.11719 36.5059 5.78125C37.1544 4.4375 38.0841 3.41016 39.295 2.69922C40.5137 1.98047 41.9395 1.62109 43.5723 1.62109C45.2364 1.62109 46.9083 2.02344 48.588 2.82812L47.4161 5.78125C46.7755 5.47656 46.1309 5.21094 45.4825 4.98438C44.8341 4.75781 44.1973 4.64453 43.5723 4.64453ZM59.2788 19L58.5873 17.2188H58.4936C57.892 17.9766 57.2709 18.5039 56.6303 18.8008C55.9975 19.0898 55.1694 19.2344 54.1459 19.2344C52.8881 19.2344 51.8959 18.875 51.1694 18.1562C50.4506 17.4375 50.0913 16.4141 50.0913 15.0859C50.0913 13.6953 50.5756 12.6719 51.5444 12.0156C52.5209 11.3516 53.9897 10.9844 55.9506 10.9141L58.2241 10.8438V10.2695C58.2241 8.94141 57.5444 8.27734 56.185 8.27734C55.1381 8.27734 53.9077 8.59375 52.4936 9.22656L51.31 6.8125C52.8178 6.02344 54.4897 5.62891 56.3256 5.62891C58.0834 5.62891 59.4311 6.01172 60.3686 6.77734C61.3061 7.54297 61.7748 8.70703 61.7748 10.2695V19H59.2788ZM58.2241 12.9297L56.8413 12.9766C55.8022 13.0078 55.0288 13.1953 54.5209 13.5391C54.0131 13.8828 53.7592 14.4062 53.7592 15.1094C53.7592 16.1172 54.3373 16.6211 55.4936 16.6211C56.3217 16.6211 56.9819 16.3828 57.4741 15.9062C57.9741 15.4297 58.2241 14.7969 58.2241 14.0078V12.9297ZM70.6258 16.3867C71.2508 16.3867 72.0008 16.25 72.8758 15.9766V18.6367C71.9852 19.0352 70.8914 19.2344 69.5945 19.2344C68.1648 19.2344 67.1219 18.875 66.4656 18.1562C65.8172 17.4297 65.493 16.3438 65.493 14.8984V8.58203H63.782V7.07031L65.7508 5.875L66.782 3.10938H69.0672V5.89844H72.7352V8.58203H69.0672V14.8984C69.0672 15.4062 69.2078 15.7812 69.4891 16.0234C69.7781 16.2656 70.157 16.3867 70.6258 16.3867ZM83.4962 19L82.8048 17.2188H82.7111C82.1095 17.9766 81.4884 18.5039 80.8478 18.8008C80.215 19.0898 79.3869 19.2344 78.3634 19.2344C77.1056 19.2344 76.1134 18.875 75.3869 18.1562C74.6681 17.4375 74.3087 16.4141 74.3087 15.0859C74.3087 13.6953 74.7931 12.6719 75.7619 12.0156C76.7384 11.3516 78.2072 10.9844 80.1681 10.9141L82.4416 10.8438V10.2695C82.4416 8.94141 81.7619 8.27734 80.4025 8.27734C79.3556 8.27734 78.1252 8.59375 76.7111 9.22656L75.5275 6.8125C77.0353 6.02344 78.7072 5.62891 80.5431 5.62891C82.3009 5.62891 83.6486 6.01172 84.5861 6.77734C85.5236 7.54297 85.9923 8.70703 85.9923 10.2695V19H83.4962ZM82.4416 12.9297L81.0587 12.9766C80.0197 13.0078 79.2462 13.1953 78.7384 13.5391C78.2306 13.8828 77.9767 14.4062 77.9767 15.1094C77.9767 16.1172 78.5548 16.6211 79.7111 16.6211C80.5392 16.6211 81.1994 16.3828 81.6916 15.9062C82.1916 15.4297 82.4416 14.7969 82.4416 14.0078V12.9297ZM92.898 19H89.3238V0.765625H92.898V19ZM99.1473 12.4258C99.1473 13.7227 99.3583 14.7031 99.7802 15.3672C100.21 16.0312 100.905 16.3633 101.866 16.3633C102.819 16.3633 103.503 16.0352 103.917 15.3789C104.339 14.7148 104.55 13.7305 104.55 12.4258C104.55 11.1289 104.339 10.1562 103.917 9.50781C103.495 8.85938 102.804 8.53516 101.843 8.53516C100.89 8.53516 100.202 8.85938 99.7802 9.50781C99.3583 10.1484 99.1473 11.1211 99.1473 12.4258ZM108.206 12.4258C108.206 14.5586 107.643 16.2266 106.518 17.4297C105.393 18.6328 103.827 19.2344 101.819 19.2344C100.561 19.2344 99.452 18.9609 98.4911 18.4141C97.5302 17.8594 96.7919 17.0664 96.2763 16.0352C95.7606 15.0039 95.5028 13.8008 95.5028 12.4258C95.5028 10.2852 96.0614 8.62109 97.1786 7.43359C98.2958 6.24609 99.8661 5.65234 101.89 5.65234C103.147 5.65234 104.257 5.92578 105.218 6.47266C106.179 7.01953 106.917 7.80469 107.433 8.82812C107.948 9.85156 108.206 11.0508 108.206 12.4258ZM122.201 5.89844V7.71484L120.151 8.24219C120.526 8.82812 120.713 9.48438 120.713 10.2109C120.713 11.6172 120.221 12.7148 119.237 13.5039C118.26 14.2852 116.901 14.6758 115.158 14.6758L114.514 14.6406L113.987 14.582C113.619 14.8633 113.436 15.1758 113.436 15.5195C113.436 16.0352 114.092 16.293 115.405 16.293H117.631C119.069 16.293 120.162 16.6016 120.912 17.2188C121.67 17.8359 122.049 18.7422 122.049 19.9375C122.049 21.4688 121.408 22.6562 120.127 23.5C118.854 24.3438 117.022 24.7656 114.631 24.7656C112.803 24.7656 111.405 24.4453 110.436 23.8047C109.475 23.1719 108.994 22.2812 108.994 21.1328C108.994 20.3438 109.24 19.6836 109.733 19.1523C110.225 18.6211 110.948 18.2422 111.901 18.0156C111.533 17.8594 111.213 17.6055 110.94 17.2539C110.666 16.8945 110.53 16.5156 110.53 16.1172C110.53 15.6172 110.674 15.2031 110.963 14.875C111.252 14.5391 111.67 14.2109 112.217 13.8906C111.53 13.5938 110.983 13.1172 110.576 12.4609C110.178 11.8047 109.979 11.0312 109.979 10.1406C109.979 8.71094 110.444 7.60547 111.373 6.82422C112.303 6.04297 113.631 5.65234 115.358 5.65234C115.725 5.65234 116.158 5.6875 116.658 5.75781C117.166 5.82031 117.49 5.86719 117.631 5.89844H122.201ZM112.088 20.8516C112.088 21.3438 112.323 21.7305 112.791 22.0117C113.268 22.293 113.932 22.4336 114.783 22.4336C116.065 22.4336 117.069 22.2578 117.795 21.9062C118.522 21.5547 118.885 21.0742 118.885 20.4648C118.885 19.9727 118.67 19.6328 118.24 19.4453C117.811 19.2578 117.147 19.1641 116.248 19.1641H114.397C113.74 19.1641 113.19 19.3164 112.744 19.6211C112.307 19.9336 112.088 20.3438 112.088 20.8516ZM113.389 10.1875C113.389 10.8984 113.549 11.4609 113.869 11.875C114.198 12.2891 114.694 12.4961 115.358 12.4961C116.03 12.4961 116.522 12.2891 116.834 11.875C117.147 11.4609 117.303 10.8984 117.303 10.1875C117.303 8.60938 116.655 7.82031 115.358 7.82031C114.045 7.82031 113.389 8.60938 113.389 10.1875Z" fill="white"/>
</svg>
