<svg width="1235" height="724" viewBox="0 0 1235 724" fill="none" xmlns="http://www.w3.org/2000/svg">
<path d="M16.3711 17.2695C16.3711 20.0898 15.5664 22.25 13.957 23.75C12.3555 25.25 10.0391 26 7.00781 26H2.15625V8.86719H7.53516C10.332 8.86719 12.5039 9.60547 14.0508 11.082C15.5977 12.5586 16.3711 14.6211 16.3711 17.2695ZM12.5977 17.3633C12.5977 13.6836 10.9727 11.8438 7.72266 11.8438H5.78906V23H7.34766C10.8477 23 12.5977 21.1211 12.5977 17.3633ZM29.6752 21.2422C29.6752 22.7891 29.1166 24.0078 27.9994 24.8984C26.89 25.7891 25.3431 26.2344 23.3587 26.2344C21.5306 26.2344 19.9134 25.8906 18.5072 25.2031V21.8281C19.6634 22.3438 20.64 22.707 21.4369 22.918C22.2416 23.1289 22.9759 23.2344 23.64 23.2344C24.4369 23.2344 25.0462 23.082 25.4681 22.7773C25.8978 22.4727 26.1127 22.0195 26.1127 21.418C26.1127 21.082 26.0189 20.7852 25.8314 20.5273C25.6439 20.2617 25.3666 20.0078 24.9994 19.7656C24.64 19.5234 23.9017 19.1367 22.7845 18.6055C21.7377 18.1133 20.9525 17.6406 20.4291 17.1875C19.9056 16.7344 19.4877 16.207 19.1752 15.6055C18.8627 15.0039 18.7064 14.3008 18.7064 13.4961C18.7064 11.9805 19.2181 10.7891 20.2416 9.92188C21.2728 9.05469 22.6947 8.62109 24.5072 8.62109C25.3978 8.62109 26.2455 8.72656 27.0502 8.9375C27.8627 9.14844 28.7103 9.44531 29.5931 9.82812L28.4212 12.6523C27.5072 12.2773 26.7494 12.0156 26.1478 11.8672C25.5541 11.7188 24.9681 11.6445 24.39 11.6445C23.7025 11.6445 23.1752 11.8047 22.808 12.125C22.4408 12.4453 22.2572 12.8633 22.2572 13.3789C22.2572 13.6992 22.3314 13.9805 22.4798 14.2227C22.6283 14.457 22.8627 14.6875 23.183 14.9141C23.5111 15.1328 24.2806 15.5312 25.4916 16.1094C27.0931 16.875 28.1908 17.6445 28.7845 18.418C29.3783 19.1836 29.6752 20.125 29.6752 21.2422ZM45.5723 11.6445C44.2052 11.6445 43.1466 12.1602 42.3966 13.1914C41.6466 14.2148 41.2716 15.6445 41.2716 17.4805C41.2716 21.3008 42.7052 23.2109 45.5723 23.2109C46.7755 23.2109 48.2325 22.9102 49.9434 22.3086V25.3555C48.5372 25.9414 46.9669 26.2344 45.2325 26.2344C42.7403 26.2344 40.8341 25.4805 39.5137 23.9727C38.1934 22.457 37.5333 20.2852 37.5333 17.457C37.5333 15.6758 37.8575 14.1172 38.5059 12.7812C39.1544 11.4375 40.0841 10.4102 41.295 9.69922C42.5137 8.98047 43.9395 8.62109 45.5723 8.62109C47.2364 8.62109 48.9083 9.02344 50.588 9.82812L49.4161 12.7812C48.7755 12.4766 48.1309 12.2109 47.4825 11.9844C46.8341 11.7578 46.1973 11.6445 45.5723 11.6445ZM61.2788 26L60.5873 24.2188H60.4936C59.892 24.9766 59.2709 25.5039 58.6303 25.8008C57.9975 26.0898 57.1694 26.2344 56.1459 26.2344C54.8881 26.2344 53.8959 25.875 53.1694 25.1562C52.4506 24.4375 52.0913 23.4141 52.0913 22.0859C52.0913 20.6953 52.5756 19.6719 53.5444 19.0156C54.5209 18.3516 55.9897 17.9844 57.9506 17.9141L60.2241 17.8438V17.2695C60.2241 15.9414 59.5444 15.2773 58.185 15.2773C57.1381 15.2773 55.9077 15.5938 54.4936 16.2266L53.31 13.8125C54.8178 13.0234 56.4897 12.6289 58.3256 12.6289C60.0834 12.6289 61.4311 13.0117 62.3686 13.7773C63.3061 14.543 63.7748 15.707 63.7748 17.2695V26H61.2788ZM60.2241 19.9297L58.8413 19.9766C57.8022 20.0078 57.0288 20.1953 56.5209 20.5391C56.0131 20.8828 55.7592 21.4062 55.7592 22.1094C55.7592 23.1172 56.3373 23.6211 57.4936 23.6211C58.3217 23.6211 58.9819 23.3828 59.4741 22.9062C59.9741 22.4297 60.2241 21.7969 60.2241 21.0078V19.9297ZM72.6258 23.3867C73.2508 23.3867 74.0008 23.25 74.8758 22.9766V25.6367C73.9852 26.0352 72.8914 26.2344 71.5945 26.2344C70.1648 26.2344 69.1219 25.875 68.4656 25.1562C67.8172 24.4297 67.493 23.3438 67.493 21.8984V15.582H65.782V14.0703L67.7508 12.875L68.782 10.1094H71.0672V12.8984H74.7352V15.582H71.0672V21.8984C71.0672 22.4062 71.2078 22.7812 71.4891 23.0234C71.7781 23.2656 72.157 23.3867 72.6258 23.3867ZM85.4962 26L84.8048 24.2188H84.7111C84.1095 24.9766 83.4884 25.5039 82.8478 25.8008C82.215 26.0898 81.3869 26.2344 80.3634 26.2344C79.1056 26.2344 78.1134 25.875 77.3869 25.1562C76.6681 24.4375 76.3087 23.4141 76.3087 22.0859C76.3087 20.6953 76.7931 19.6719 77.7619 19.0156C78.7384 18.3516 80.2072 17.9844 82.1681 17.9141L84.4416 17.8438V17.2695C84.4416 15.9414 83.7619 15.2773 82.4025 15.2773C81.3556 15.2773 80.1252 15.5938 78.7111 16.2266L77.5275 13.8125C79.0353 13.0234 80.7072 12.6289 82.5431 12.6289C84.3009 12.6289 85.6486 13.0117 86.5861 13.7773C87.5236 14.543 87.9923 15.707 87.9923 17.2695V26H85.4962ZM84.4416 19.9297L83.0587 19.9766C82.0197 20.0078 81.2462 20.1953 80.7384 20.5391C80.2306 20.8828 79.9767 21.4062 79.9767 22.1094C79.9767 23.1172 80.5548 23.6211 81.7111 23.6211C82.5392 23.6211 83.1994 23.3828 83.6916 22.9062C84.1916 22.4297 84.4416 21.7969 84.4416 21.0078V19.9297ZM94.898 26H91.3238V7.76562H94.898V26ZM101.147 19.4258C101.147 20.7227 101.358 21.7031 101.78 22.3672C102.21 23.0312 102.905 23.3633 103.866 23.3633C104.819 23.3633 105.503 23.0352 105.917 22.3789C106.339 21.7148 106.55 20.7305 106.55 19.4258C106.55 18.1289 106.339 17.1562 105.917 16.5078C105.495 15.8594 104.804 15.5352 103.843 15.5352C102.89 15.5352 102.202 15.8594 101.78 16.5078C101.358 17.1484 101.147 18.1211 101.147 19.4258ZM110.206 19.4258C110.206 21.5586 109.643 23.2266 108.518 24.4297C107.393 25.6328 105.827 26.2344 103.819 26.2344C102.561 26.2344 101.452 25.9609 100.491 25.4141C99.5302 24.8594 98.7919 24.0664 98.2763 23.0352C97.7606 22.0039 97.5028 20.8008 97.5028 19.4258C97.5028 17.2852 98.0614 15.6211 99.1786 14.4336C100.296 13.2461 101.866 12.6523 103.89 12.6523C105.147 12.6523 106.257 12.9258 107.218 13.4727C108.179 14.0195 108.917 14.8047 109.433 15.8281C109.948 16.8516 110.206 18.0508 110.206 19.4258ZM124.201 12.8984V14.7148L122.151 15.2422C122.526 15.8281 122.713 16.4844 122.713 17.2109C122.713 18.6172 122.221 19.7148 121.237 20.5039C120.26 21.2852 118.901 21.6758 117.158 21.6758L116.514 21.6406L115.987 21.582C115.619 21.8633 115.436 22.1758 115.436 22.5195C115.436 23.0352 116.092 23.293 117.405 23.293H119.631C121.069 23.293 122.162 23.6016 122.912 24.2188C123.67 24.8359 124.049 25.7422 124.049 26.9375C124.049 28.4688 123.408 29.6562 122.127 30.5C120.854 31.3438 119.022 31.7656 116.631 31.7656C114.803 31.7656 113.405 31.4453 112.436 30.8047C111.475 30.1719 110.994 29.2812 110.994 28.1328C110.994 27.3438 111.24 26.6836 111.733 26.1523C112.225 25.6211 112.948 25.2422 113.901 25.0156C113.533 24.8594 113.213 24.6055 112.94 24.2539C112.666 23.8945 112.53 23.5156 112.53 23.1172C112.53 22.6172 112.674 22.2031 112.963 21.875C113.252 21.5391 113.67 21.2109 114.217 20.8906C113.53 20.5938 112.983 20.1172 112.576 19.4609C112.178 18.8047 111.979 18.0312 111.979 17.1406C111.979 15.7109 112.444 14.6055 113.373 13.8242C114.303 13.043 115.631 12.6523 117.358 12.6523C117.725 12.6523 118.158 12.6875 118.658 12.7578C119.166 12.8203 119.49 12.8672 119.631 12.8984H124.201ZM114.088 27.8516C114.088 28.3438 114.323 28.7305 114.791 29.0117C115.268 29.293 115.932 29.4336 116.783 29.4336C118.065 29.4336 119.069 29.2578 119.795 28.9062C120.522 28.5547 120.885 28.0742 120.885 27.4648C120.885 26.9727 120.67 26.6328 120.24 26.4453C119.811 26.2578 119.147 26.1641 118.248 26.1641H116.397C115.74 26.1641 115.19 26.3164 114.744 26.6211C114.307 26.9336 114.088 27.3438 114.088 27.8516ZM115.389 17.1875C115.389 17.8984 115.549 18.4609 115.869 18.875C116.198 19.2891 116.694 19.4961 117.358 19.4961C118.03 19.4961 118.522 19.2891 118.834 18.875C119.147 18.4609 119.303 17.8984 119.303 17.1875C119.303 15.6094 118.655 14.8203 117.358 14.8203C116.045 14.8203 115.389 15.6094 115.389 17.1875Z" fill="white"/>
<path d="M983.24 723.195C1122.12 723.195 1234.71 716.622 1234.71 708.514C1234.71 700.405 1122.12 693.832 983.24 693.832C844.358 693.832 731.772 700.405 731.772 708.514C731.772 716.622 844.358 723.195 983.24 723.195Z" fill="#F5F5F5"/>
<path d="M1005.43 696.53C1005.02 696.529 1004.63 696.388 1004.32 696.13C1004 695.873 1003.79 695.514 1003.71 695.116L979.064 573.773H936.147L911.505 695.116C911.388 695.549 911.11 695.92 910.729 696.155C910.348 696.39 909.891 696.471 909.452 696.382C909.013 696.293 908.624 696.04 908.365 695.675C908.106 695.31 907.995 694.86 908.055 694.416L932.983 571.659C933.066 571.261 933.282 570.905 933.596 570.647C933.91 570.39 934.302 570.248 934.708 570.245H980.49C980.897 570.246 981.29 570.387 981.605 570.644C981.919 570.902 982.135 571.26 982.215 571.659L1007.16 694.416C1007.25 694.873 1007.15 695.348 1006.9 695.737C1006.64 696.126 1006.24 696.397 1005.78 696.491L1005.43 696.53Z" fill="#407BFF"/>
<path d="M936.55 696.53C936.144 696.527 935.751 696.385 935.438 696.127C935.124 695.87 934.907 695.513 934.825 695.116L910.182 573.773H867.266L842.624 695.116C842.591 695.355 842.51 695.585 842.385 695.792C842.26 695.998 842.094 696.177 841.897 696.316C841.701 696.456 841.477 696.554 841.241 696.604C841.005 696.654 840.761 696.655 840.525 696.607C840.289 696.559 840.064 696.463 839.867 696.325C839.669 696.187 839.501 696.009 839.375 695.804C839.248 695.599 839.165 695.37 839.13 695.131C839.096 694.892 839.11 694.649 839.174 694.416L864.114 571.659C864.195 571.26 864.411 570.902 864.725 570.644C865.039 570.387 865.433 570.246 865.839 570.245H911.622C912.027 570.246 912.419 570.388 912.731 570.646C913.043 570.903 913.256 571.261 913.334 571.659L938.274 694.416C938.366 694.873 938.273 695.348 938.016 695.737C937.758 696.126 937.357 696.397 936.9 696.491L936.55 696.53Z" fill="#407BFF"/>
<path d="M946.186 572.022H867.331C860.093 572.023 853.143 569.187 847.973 564.121C842.803 559.055 839.826 552.165 839.68 544.928L836.748 425.089C836.693 422.41 837.173 419.748 838.16 417.257C839.146 414.766 840.62 412.497 842.494 410.582C844.369 408.668 846.607 407.147 849.076 406.108C851.546 405.069 854.198 404.533 856.877 404.532H906.317C911.265 404.535 916.039 406.359 919.73 409.654C923.42 412.95 925.769 417.488 926.329 422.404L946.186 572.022Z" fill="#407BFF"/>
<path d="M903.179 556.847H980.348C983.213 556.847 985.961 557.986 987.987 560.012C990.013 562.038 991.152 564.786 991.152 567.651V568.027C991.152 569.059 990.742 570.049 990.012 570.778C989.282 571.508 988.293 571.918 987.261 571.918H903.179V556.847Z" fill="#407BFF"/>
<g opacity="0.3">
<path opacity="0.3" d="M1005.43 696.53C1005.02 696.529 1004.63 696.388 1004.32 696.13C1004 695.873 1003.79 695.514 1003.71 695.116L979.064 573.773H936.147L911.505 695.116C911.388 695.549 911.11 695.92 910.729 696.155C910.348 696.39 909.891 696.471 909.452 696.382C909.013 696.293 908.624 696.04 908.365 695.675C908.106 695.31 907.995 694.86 908.055 694.416L932.983 571.659C933.066 571.261 933.282 570.905 933.596 570.647C933.91 570.39 934.302 570.248 934.708 570.245H980.49C980.897 570.246 981.29 570.387 981.605 570.644C981.919 570.902 982.135 571.26 982.215 571.659L1007.16 694.416C1007.25 694.873 1007.15 695.348 1006.9 695.737C1006.64 696.126 1006.24 696.397 1005.78 696.491L1005.43 696.53Z" fill="black"/>
<path opacity="0.3" d="M936.55 696.53C936.144 696.527 935.751 696.385 935.438 696.127C935.124 695.87 934.907 695.513 934.825 695.116L910.182 573.773H867.266L842.624 695.116C842.591 695.355 842.51 695.585 842.385 695.792C842.26 695.998 842.094 696.177 841.897 696.316C841.701 696.456 841.477 696.554 841.241 696.604C841.005 696.654 840.761 696.655 840.525 696.607C840.289 696.559 840.064 696.463 839.867 696.325C839.669 696.187 839.501 696.009 839.375 695.804C839.248 695.599 839.165 695.37 839.13 695.131C839.096 694.892 839.11 694.649 839.174 694.416L864.114 571.659C864.195 571.26 864.411 570.902 864.725 570.644C865.039 570.387 865.433 570.246 865.839 570.245H911.622C912.027 570.246 912.419 570.388 912.731 570.646C913.043 570.903 913.256 571.261 913.334 571.659L938.274 694.416C938.366 694.873 938.273 695.348 938.016 695.737C937.758 696.126 937.357 696.397 936.9 696.491L936.55 696.53Z" fill="black"/>
<path opacity="0.3" d="M946.186 572.022H867.331C860.093 572.023 853.143 569.187 847.973 564.121C842.803 559.055 839.826 552.165 839.68 544.928L836.748 425.089C836.693 422.41 837.173 419.748 838.16 417.257C839.146 414.766 840.62 412.497 842.494 410.582C844.369 408.668 846.607 407.147 849.076 406.108C851.546 405.069 854.198 404.533 856.877 404.532H906.317C911.265 404.535 916.039 406.359 919.73 409.654C923.42 412.95 925.769 417.488 926.329 422.404L946.186 572.022Z" fill="black"/>
<path opacity="0.3" d="M903.179 556.847H980.348C983.213 556.847 985.961 557.985 987.987 560.012C990.013 562.038 991.152 564.786 991.152 567.651V568.027C991.152 569.059 990.742 570.049 990.012 570.778C989.282 571.508 988.293 571.918 987.261 571.918H903.179V556.847Z" fill="black"/>
</g>
<path d="M924.241 397.918C924.241 397.918 935.266 412.314 928.132 440.977C920.999 469.64 884.191 454.076 881.96 428.241C879.367 397.788 913.554 418.786 919.572 391.705L924.241 397.918Z" fill="#263238"/>
<path d="M916.239 389.371C911.453 392.743 909.56 397.645 914.851 402.444C920.143 407.243 927.691 407.087 929.974 405.116C932.257 403.145 931.803 393.132 931.803 393.132L916.239 389.371Z" fill="#407BFF"/>
<path opacity="0.8" d="M916.239 389.371C911.453 392.743 909.56 397.645 914.851 402.444C920.143 407.243 927.691 407.087 929.974 405.116C932.257 403.145 931.803 393.132 931.803 393.132L916.239 389.371Z" fill="white"/>
<path d="M976.677 453.168C976.807 453.752 977.028 454.66 977.235 455.425L977.858 457.863C978.299 459.497 978.778 461.132 979.284 462.766C980.244 466.06 981.308 469.341 982.423 472.623C983.538 475.904 984.68 479.107 985.925 482.428C986.534 484.049 987.144 485.683 987.792 487.304L988.545 489.25C988.695 489.582 988.891 489.892 989.128 490.17C990.974 492.038 993.224 493.457 995.704 494.321C998.733 495.54 1001.86 496.511 1005.04 497.226C1008.34 497.991 1011.72 498.627 1015.15 499.158C1018.57 499.69 1022.08 500.118 1025.46 500.455L1025.57 507.433C1018.17 508.198 1010.72 508.198 1003.32 507.433C999.45 507.034 995.626 506.292 991.891 505.215C989.868 504.604 987.898 503.828 986.003 502.894C983.82 501.833 981.823 500.427 980.088 498.73C979.082 497.728 978.21 496.599 977.494 495.371C977.3 495.06 977.131 494.71 976.95 494.386L976.613 493.685L976.016 492.388C975.212 490.741 974.408 489.094 973.668 487.421C972.164 484.075 970.698 480.703 969.388 477.266C968.079 473.829 966.795 470.366 965.705 466.89C965.173 465.1 964.655 463.323 964.175 461.495L963.461 458.758C963.254 457.772 963.059 456.955 962.852 455.788L976.677 453.168Z" fill="#E58A7B"/>
<path d="M972.268 438.435C977.832 439.848 981.71 462.727 981.71 462.727L966.392 473.103C966.392 473.103 951.698 450.017 956.017 443.908C960.439 437.631 964.149 436.412 972.268 438.435Z" fill="#407BFF"/>
<path opacity="0.5" d="M972.268 438.435C977.832 439.848 981.71 462.727 981.71 462.727L966.392 473.103C966.392 473.103 951.698 450.017 956.017 443.908C960.439 437.631 964.149 436.412 972.268 438.435Z" fill="white"/>
<path opacity="0.2" d="M970.27 444.193L956.951 454.751C959.545 461.164 962.7 467.335 966.38 473.193L977.002 465.969L970.27 444.193Z" fill="#407BFF"/>
<path d="M972.268 438.435C972.268 438.435 978.752 440.691 965.783 519.845H911.025C911.946 497.55 911.972 483.802 901.324 438.033C908.992 436.453 916.763 435.43 924.578 434.972C932.864 434.381 941.181 434.381 949.467 434.972C960.154 435.996 972.268 438.435 972.268 438.435Z" fill="#407BFF"/>
<path opacity="0.5" d="M972.268 438.435C972.268 438.435 978.752 440.691 965.783 519.845H911.025C911.946 497.55 911.972 483.802 901.324 438.033C908.992 436.453 916.763 435.43 924.578 434.972C932.864 434.381 941.181 434.381 949.467 434.972C960.154 435.996 972.268 438.435 972.268 438.435Z" fill="white"/>
<path d="M1023.45 500.391L1033 490.689L1034.3 504.359C1034.3 504.359 1027.13 509.21 1022.17 506.603L1023.45 500.391Z" fill="#E58A7B"/>
<path d="M1044.29 489.25L1044.72 500.741L1034.29 504.359L1033.03 490.689L1044.29 489.25Z" fill="#E58A7B"/>
<path d="M1027.93 683.949H1041.42L1043.5 652.706H1030.01L1027.93 683.949Z" fill="#E58A7B"/>
<path d="M975.731 683.949H989.219L993.551 652.706H980.063L975.731 683.949Z" fill="#E58A7B"/>
<path d="M990.062 682.38H974.901C974.639 682.375 974.385 682.465 974.187 682.635C973.988 682.805 973.859 683.042 973.824 683.301L972.099 695.298C972.068 695.601 972.101 695.907 972.196 696.196C972.291 696.486 972.445 696.752 972.649 696.978C972.853 697.204 973.103 697.385 973.381 697.509C973.659 697.633 973.96 697.697 974.265 697.697C979.544 697.606 982.047 697.295 988.752 697.295C992.85 697.295 1003.37 697.723 1009.04 697.723C1014.7 697.723 1015 692.12 1012.64 691.614C1002.07 689.332 995.872 686.206 992.306 683.21C991.68 682.676 990.885 682.381 990.062 682.38Z" fill="#263238"/>
<path d="M1042.47 682.38H1027.34C1027.08 682.377 1026.82 682.469 1026.63 682.638C1026.43 682.808 1026.3 683.043 1026.26 683.301L1024.54 695.298C1024.5 695.601 1024.54 695.907 1024.63 696.196C1024.73 696.486 1024.88 696.752 1025.09 696.978C1025.29 697.204 1025.54 697.385 1025.82 697.509C1026.1 697.633 1026.4 697.697 1026.7 697.697C1031.98 697.606 1034.48 697.295 1041.19 697.295C1045.3 697.295 1053.77 697.723 1059.44 697.723C1065.1 697.723 1065.4 692.12 1063.04 691.614C1052.47 689.332 1048.31 686.206 1044.75 683.21C1044.12 682.671 1043.31 682.377 1042.47 682.38Z" fill="#263238"/>
<path d="M961.516 379.708C966.367 380.02 968.831 404.351 954.603 402.937C940.376 401.523 961.516 379.708 961.516 379.708Z" fill="#263238"/>
<path d="M1043.5 652.706L1042.42 668.814H1028.93L1030 652.706H1043.5Z" fill="#CF6F64"/>
<path d="M980.063 652.706H993.564L991.32 668.814H977.819L980.063 652.706Z" fill="#CF6F64"/>
<path opacity="0.2" d="M906.797 463.479C908.094 470.12 909.015 475.852 909.715 481.014L912.919 456.229L906.797 463.479Z" fill="#407BFF"/>
<path d="M927.043 407.01C928.612 415.012 930.181 429.68 924.579 435.024C924.579 435.024 926.77 443.143 941.647 443.143C958.001 443.143 949.428 435.024 949.428 435.024C940.492 432.897 940.726 426.269 942.282 420.057L927.043 407.01Z" fill="#E58A7B"/>
<path d="M938.689 444.881L943.67 443.091L943.008 441.729L938.689 444.881Z" fill="#263238"/>
<path d="M948.352 443.843L943.67 443.091L944.682 441.573L948.352 443.843Z" fill="#263238"/>
<path d="M926.394 431.25L923.009 434.544C922.908 434.648 922.851 434.788 922.851 434.933C922.851 435.078 922.908 435.218 923.009 435.322L937.276 451.573C937.954 447.713 940.021 444.235 943.086 441.794C931.284 437.332 928.21 432.715 927.159 431.418C927.135 431.343 927.091 431.275 927.033 431.222C926.974 431.169 926.903 431.132 926.825 431.115C926.748 431.097 926.667 431.101 926.592 431.125C926.516 431.148 926.448 431.191 926.394 431.25Z" fill="#407BFF"/>
<path d="M946.782 433.74L950.985 434.881C951.11 434.916 951.225 434.984 951.316 435.077C951.407 435.171 951.472 435.286 951.503 435.413C952.691 440.743 952.467 446.291 950.855 451.508C950.258 449.303 948.261 444.025 944.681 441.573C948.572 438.889 947.003 435.426 946.445 434.116C946.427 434.067 946.423 434.014 946.432 433.963C946.442 433.912 946.466 433.865 946.5 433.826C946.535 433.787 946.58 433.759 946.629 433.744C946.679 433.728 946.732 433.727 946.782 433.74Z" fill="#407BFF"/>
<path d="M933.281 412.327L942.36 420.044C941.983 421.49 941.727 422.965 941.595 424.454C938.184 423.961 933.502 420.226 933.138 416.672C932.916 415.227 932.965 413.754 933.281 412.327Z" fill="#CF6F64"/>
<path d="M926.174 385.921C924.63 399.215 923.684 404.818 929.131 412.755C937.302 424.7 953.981 423.688 959.467 411.121C964.408 399.811 966.094 379.994 954.162 372.419C951.538 370.744 948.528 369.768 945.42 369.583C942.311 369.398 939.207 370.012 936.403 371.365C933.598 372.717 931.186 374.765 929.396 377.313C927.605 379.861 926.496 382.824 926.174 385.921Z" fill="#E58A7B"/>
<path d="M956.575 363.963C934.591 355.287 918.081 365.079 914.67 378.995C909.313 400.603 926.42 402.12 926.42 402.12L928.56 396.595C931.634 398.45 940.233 397.632 937.639 381.589C936.109 372.51 947.6 385.156 962.178 383.742C966.055 383.366 971.36 369.8 956.575 363.963Z" fill="#263238"/>
<path d="M964.058 369.307C961.166 364.858 955.252 361.045 942.995 359.242C942.995 359.242 949.363 360.682 951.426 365.338C953.488 369.994 967.547 374.663 964.058 369.307Z" fill="#263238"/>
<path d="M921.946 397.425C921.856 398.703 922.02 399.987 922.427 401.202C922.834 402.417 923.477 403.54 924.319 404.506C926.589 407.1 929.572 405.505 930.506 402.392C931.336 399.578 931.167 394.857 928.132 393.43C925.097 392.004 922.192 394.26 921.946 397.425Z" fill="#E58A7B"/>
<path d="M965.822 519.897C965.822 519.897 1056.27 528.314 1055.39 569.441C1054.47 612.24 1045.31 665.701 1045.31 665.701H1026.62C1026.62 665.701 1025.03 620.463 1024.48 578.325C1024.21 556.38 936.809 551.984 936.809 551.984L925.525 519.897H965.822Z" fill="#263238"/>
<path d="M951.348 519.897C951.348 519.897 1009.8 539.286 1011.28 563.28C1013.99 607.455 994.575 665.74 994.575 665.74H976.172C976.172 665.74 977.222 627.091 979.414 587.066C982.189 536.77 893.451 586.366 911.025 519.936L951.348 519.897Z" fill="#263238"/>
<path d="M945.408 393.171C945.213 394.234 945.628 395.207 946.329 395.337C947.029 395.467 947.742 394.688 947.937 393.625C948.131 392.561 947.716 391.576 947.016 391.459C946.316 391.342 945.628 392.094 945.408 393.171Z" fill="#263238"/>
<path d="M957.508 395.337C957.314 396.4 957.729 397.373 958.429 397.503C959.13 397.632 959.856 396.854 960.05 395.791C960.245 394.727 959.83 393.742 959.13 393.625C958.429 393.508 957.703 394.26 957.508 395.337Z" fill="#263238"/>
<path d="M958.805 393.625L961.516 393.339C961.516 393.339 959.895 395.116 958.805 393.625Z" fill="#263238"/>
<path d="M953.981 396.595C954.5 399.208 955.372 401.739 956.574 404.117C955.964 404.395 955.3 404.539 954.629 404.539C953.958 404.539 953.294 404.395 952.684 404.117L953.981 396.595Z" fill="#DF5753"/>
<path d="M948.222 407.58C946.799 407.354 945.449 406.796 944.282 405.951C943.114 405.106 942.163 403.998 941.504 402.717C941.482 402.667 941.48 402.61 941.5 402.559C941.519 402.508 941.558 402.467 941.608 402.444C941.659 402.426 941.716 402.428 941.766 402.45C941.817 402.472 941.857 402.511 941.88 402.561C942.504 403.772 943.402 404.82 944.503 405.622C945.604 406.424 946.878 406.957 948.222 407.178C948.276 407.191 948.323 407.223 948.355 407.268C948.386 407.314 948.399 407.37 948.391 407.424C948.381 407.464 948.36 407.5 948.33 407.528C948.3 407.555 948.262 407.574 948.222 407.58Z" fill="#263238"/>
<path d="M942.567 388.385C942.511 388.387 942.455 388.377 942.403 388.354C942.352 388.332 942.306 388.298 942.269 388.255C942.23 388.219 942.198 388.175 942.177 388.126C942.156 388.077 942.145 388.024 942.145 387.97C942.145 387.917 942.156 387.864 942.177 387.814C942.198 387.765 942.23 387.721 942.269 387.685C942.968 387.002 943.82 386.497 944.755 386.213C945.689 385.929 946.678 385.873 947.639 386.051C947.74 386.081 947.826 386.149 947.879 386.24C947.932 386.332 947.948 386.44 947.924 386.543C947.912 386.596 947.889 386.645 947.858 386.689C947.826 386.732 947.786 386.769 947.74 386.797C947.694 386.824 947.643 386.843 947.59 386.85C947.537 386.858 947.483 386.855 947.431 386.842C946.602 386.695 945.751 386.75 944.947 387C944.144 387.251 943.412 387.69 942.814 388.281C942.744 388.341 942.658 388.377 942.567 388.385Z" fill="#263238"/>
<path d="M964.123 390.512C964.042 390.515 963.963 390.493 963.896 390.449C963.828 390.405 963.776 390.341 963.747 390.266C963.43 389.487 962.933 388.795 962.298 388.245C961.662 387.695 960.905 387.303 960.089 387.101C959.984 387.082 959.89 387.023 959.827 386.936C959.764 386.849 959.737 386.741 959.752 386.634C959.771 386.526 959.832 386.43 959.922 386.366C960.012 386.303 960.124 386.278 960.232 386.297C961.182 386.517 962.065 386.963 962.806 387.598C963.546 388.232 964.123 389.036 964.486 389.941C964.53 390.041 964.533 390.154 964.494 390.256C964.455 390.358 964.378 390.441 964.279 390.486L964.123 390.512Z" fill="#263238"/>
<path d="M909.508 457.604C908.328 461.495 907.057 465.386 905.928 469.38C904.8 473.375 903.607 477.266 902.582 481.222C901.558 485.177 900.585 489.094 899.859 492.894C899.508 494.814 899.184 496.72 899.003 498.51C898.899 499.405 898.847 500.248 898.834 501.026C898.834 501.208 898.834 501.026 898.704 500.728C898.546 500.376 898.326 500.056 898.056 499.781C897.394 499.21 897.148 499.314 897.446 499.405C897.989 499.537 898.548 499.594 899.106 499.574C900.852 499.514 902.589 499.292 904.294 498.912C908.157 498.061 911.965 496.974 915.694 495.657C923.359 493.063 931.141 489.898 938.716 486.669L942.062 492.777C934.876 497.488 927.365 501.684 919.585 505.332C915.557 507.232 911.401 508.849 907.148 510.17C904.779 510.891 902.347 511.382 899.885 511.635C898.347 511.793 896.795 511.754 895.267 511.519C894.253 511.367 893.264 511.083 892.323 510.675C891.108 510.15 890.006 509.392 889.081 508.445C887.282 506.549 886.252 504.053 886.189 501.441C886.124 500.144 886.111 498.847 886.189 497.68C886.279 495.281 886.5 493.011 886.798 490.793C887.421 486.357 888.225 482.078 889.211 477.823C890.196 473.569 891.247 469.458 892.401 465.334C893.555 461.209 894.8 457.163 896.292 453.039L909.508 457.604Z" fill="#E58A7B"/>
<path d="M994.679 684.65C993.484 684.62 992.296 684.455 991.139 684.157C991.095 684.149 991.055 684.128 991.024 684.096C990.993 684.065 990.972 684.025 990.963 683.982C990.955 683.939 990.96 683.894 990.977 683.854C990.995 683.813 991.024 683.779 991.061 683.755C991.515 683.457 995.561 680.837 997.105 681.524C997.266 681.597 997.405 681.713 997.506 681.859C997.606 682.006 997.665 682.177 997.675 682.354C997.74 682.642 997.728 682.942 997.642 683.223C997.555 683.505 997.397 683.76 997.182 683.962C996.455 684.479 995.569 684.723 994.679 684.65ZM991.761 683.846C994.264 684.364 996.145 684.3 996.871 683.625C997.029 683.471 997.145 683.28 997.209 683.069C997.273 682.858 997.281 682.634 997.234 682.419C997.229 682.317 997.197 682.218 997.139 682.134C997.082 682.049 997.003 681.982 996.91 681.939C995.924 681.498 993.188 682.964 991.761 683.846Z" fill="#407BFF"/>
<path d="M991.191 684.17H991.074C991.038 684.149 991.008 684.119 990.987 684.082C990.966 684.046 990.956 684.004 990.957 683.962C990.957 683.807 990.957 679.968 992.41 678.697C992.58 678.534 992.786 678.412 993.011 678.342C993.236 678.273 993.474 678.256 993.707 678.295C993.94 678.293 994.168 678.372 994.35 678.518C994.532 678.665 994.657 678.87 994.705 679.099C994.978 680.499 992.721 683.366 991.307 684.17H991.191ZM993.473 678.697C993.188 678.699 992.914 678.81 992.708 679.008C991.683 679.916 991.476 682.484 991.411 683.508C992.708 682.575 994.446 680.214 994.225 679.164C994.225 678.995 994.096 678.774 993.629 678.71L993.473 678.697Z" fill="#407BFF"/>
<path d="M1047.54 684.65C1046.12 684.618 1044.7 684.458 1043.3 684.17C1043.26 684.158 1043.22 684.134 1043.18 684.099C1043.15 684.065 1043.13 684.022 1043.12 683.975C1043.11 683.928 1043.12 683.879 1043.15 683.837C1043.17 683.795 1043.21 683.761 1043.25 683.742C1043.85 683.431 1049.18 680.707 1050.8 681.589C1050.94 681.667 1051.06 681.779 1051.14 681.915C1051.23 682.051 1051.28 682.206 1051.29 682.367C1051.33 682.637 1051.3 682.912 1051.2 683.168C1051.11 683.424 1050.95 683.652 1050.75 683.833C1049.8 684.463 1048.67 684.751 1047.54 684.65ZM1044.05 683.846C1045.79 684.144 1049.24 684.572 1050.44 683.508C1050.58 683.369 1050.7 683.197 1050.77 683.005C1050.84 682.814 1050.86 682.608 1050.84 682.406C1050.84 682.318 1050.81 682.232 1050.77 682.157C1050.72 682.081 1050.66 682.02 1050.58 681.978C1049.51 681.407 1045.94 682.925 1044.05 683.846Z" fill="#407BFF"/>
<path d="M1043.35 684.17C1043.31 684.183 1043.27 684.183 1043.22 684.17C1043.19 684.145 1043.17 684.114 1043.15 684.078C1043.13 684.042 1043.12 684.002 1043.12 683.962C1043.12 683.807 1043.44 680.214 1045.1 678.775C1045.34 678.576 1045.61 678.428 1045.9 678.339C1046.19 678.249 1046.5 678.221 1046.8 678.256C1047.63 678.334 1047.87 678.749 1047.93 679.073C1048.17 680.564 1045.03 683.418 1043.44 684.131L1043.35 684.17ZM1046.56 678.697C1046.13 678.695 1045.72 678.852 1045.4 679.138C1044.18 680.149 1043.76 682.575 1043.63 683.547C1045.33 682.601 1047.65 680.162 1047.52 679.164C1047.52 679.06 1047.52 678.775 1046.8 678.71L1046.56 678.697Z" fill="#407BFF"/>
<path d="M938.404 486.876L951.192 483.634L945.097 495.916C945.097 495.916 936.446 496.292 933.593 491.468L938.404 486.876Z" fill="#E58A7B"/>
<path d="M961.529 488.29L955.874 498.303L945.096 495.916L951.192 483.634L961.529 488.29Z" fill="#E58A7B"/>
<path d="M946.692 391.459L949.402 391.174C949.402 391.174 947.729 392.95 946.692 391.459Z" fill="#263238"/>
<path d="M910.208 516.68L909.767 521.583C909.586 521.972 910.027 522.361 910.662 522.361H966.094C966.587 522.361 966.989 522.115 967.028 521.803L967.521 516.901C967.521 516.564 967.119 516.278 966.587 516.278H911.103C910.932 516.264 910.76 516.293 910.604 516.364C910.447 516.434 910.311 516.543 910.208 516.68Z" fill="#407BFF"/>
<path d="M917.666 522.893H916.174C915.876 522.893 915.656 522.737 915.669 522.556L916.369 516.175C916.369 515.993 916.654 515.837 916.953 515.837H918.392C918.69 515.837 918.911 515.993 918.898 516.175L918.198 522.556C918.211 522.737 917.951 522.893 917.666 522.893Z" fill="#263238"/>
<path d="M961.918 522.893H960.427C960.128 522.893 959.908 522.737 959.921 522.556L960.621 516.175C960.621 515.993 960.906 515.837 961.205 515.837H962.683C962.982 515.837 963.202 515.993 963.189 516.175L962.489 522.556C962.489 522.737 962.203 522.893 961.918 522.893Z" fill="#263238"/>
<path d="M939.792 522.893H938.3C938.002 522.893 937.782 522.737 937.794 522.556L938.495 516.175C938.495 515.993 938.78 515.837 939.078 515.837H940.557C940.855 515.837 941.076 515.993 941.063 516.175L940.362 522.556C940.337 522.737 940.09 522.893 939.792 522.893Z" fill="#263238"/>
<path d="M901.324 438.085C895.825 439.758 889.236 458.654 889.236 458.654L906.94 475.943C906.94 475.943 918.301 458.11 916.019 451.015C913.593 443.623 907.588 436.191 901.324 438.085Z" fill="#407BFF"/>
<path opacity="0.5" d="M901.324 438.085C895.825 439.758 889.236 458.654 889.236 458.654L906.94 475.943C906.94 475.943 918.301 458.11 916.019 451.015C913.593 443.623 907.588 436.191 901.324 438.085Z" fill="white"/>
<path d="M1195.5 506.422H1092.31V707.126H1195.5V506.422Z" fill="#407BFF"/>
<path opacity="0.6" d="M1195.5 506.422H1092.31V707.126H1195.5V506.422Z" fill="white"/>
<path d="M995.6 506.422H892.414V707.126H995.6V506.422Z" fill="#407BFF"/>
<path opacity="0.6" d="M995.6 506.422H892.414V707.126H995.6V506.422Z" fill="white"/>
<path d="M1199.37 506.422H1190.86V707.126H1199.37V506.422Z" fill="#407BFF"/>
<path opacity="0.3" d="M1199.37 506.422H1190.86V707.126H1199.37V506.422Z" fill="black"/>
<path d="M996.832 521.479H1202V506.422H996.832V521.479Z" fill="#407BFF"/>
<path opacity="0.3" d="M996.832 521.479H1202V506.422H996.832V521.479Z" fill="black"/>
<path d="M999.478 506.422H990.97V707.126H999.478V506.422Z" fill="#407BFF"/>
<path opacity="0.3" d="M999.478 506.422H990.97V707.126H999.478V506.422Z" fill="black"/>
<path d="M996.339 554.435H1195.11V511.078H996.339V554.435Z" fill="#407BFF"/>
<path opacity="0.3" d="M996.339 554.435H1195.11V511.078H996.339V554.435Z" fill="black"/>
<path d="M1195.55 712.962H1138.27C1134.38 712.959 1130.65 711.412 1127.9 708.662C1125.15 705.912 1123.6 702.183 1123.6 698.294V517.549C1123.6 514.11 1122.23 510.811 1119.8 508.378C1117.37 505.946 1114.07 504.58 1110.63 504.58H1093.48V503.283H1110.61C1114.4 503.283 1118.03 504.786 1120.7 507.461C1123.38 510.137 1124.88 513.766 1124.88 517.549V698.294C1124.88 701.839 1126.29 705.238 1128.8 707.745C1131.31 710.252 1134.71 711.662 1138.25 711.665H1195.55C1196.53 711.667 1197.48 711.361 1198.27 710.791C1199.06 710.221 1199.65 709.415 1199.96 708.489C1200.26 707.563 1200.27 706.565 1199.97 705.635C1199.68 704.706 1199.1 703.893 1198.32 703.313L1199.08 702.275C1200.08 703.018 1200.82 704.057 1201.2 705.245C1201.58 706.433 1201.57 707.71 1201.18 708.893C1200.79 710.077 1200.03 711.107 1199.02 711.837C1198.01 712.568 1196.8 712.962 1195.55 712.962Z" fill="#407BFF"/>
<path opacity="0.3" d="M1195.55 712.962H1138.27C1134.38 712.959 1130.65 711.412 1127.9 708.662C1125.15 705.912 1123.6 702.183 1123.6 698.294V517.549C1123.6 514.11 1122.23 510.811 1119.8 508.378C1117.37 505.946 1114.07 504.58 1110.63 504.58H1093.48V503.283H1110.61C1114.4 503.283 1118.03 504.786 1120.7 507.461C1123.38 510.137 1124.88 513.766 1124.88 517.549V698.294C1124.88 701.839 1126.29 705.238 1128.8 707.745C1131.31 710.252 1134.71 711.662 1138.25 711.665H1195.55C1196.53 711.667 1197.48 711.361 1198.27 710.791C1199.06 710.221 1199.65 709.415 1199.96 708.489C1200.26 707.563 1200.27 706.565 1199.97 705.635C1199.68 704.706 1199.1 703.893 1198.32 703.313L1199.08 702.275C1200.08 703.018 1200.82 704.057 1201.2 705.245C1201.58 706.433 1201.57 707.71 1201.18 708.893C1200.79 710.077 1200.03 711.107 1199.02 711.837C1198.01 712.568 1196.8 712.962 1195.55 712.962Z" fill="black"/>
<path d="M1203.91 565.641H1202.61V590.711H1203.91V565.641Z" fill="#407BFF"/>
<path opacity="0.3" d="M1203.91 565.641H1202.61V590.711H1203.91V565.641Z" fill="black"/>
<path d="M1203.91 550.842H1202.61V557.431H1203.91V550.842Z" fill="#407BFF"/>
<path opacity="0.3" d="M1203.91 550.842H1202.61V557.431H1203.91V550.842Z" fill="black"/>
<path d="M1108.92 446.502H1012.76L998.83 503.283H1094.97L1108.92 446.502Z" fill="#407BFF"/>
<path opacity="0.4" d="M1108.92 446.502H1012.76L998.83 503.283H1094.97L1108.92 446.502Z" fill="white"/>
<path d="M1001.77 503.283L1001.38 506.421H963.656L964.045 503.283H1001.77Z" fill="#407BFF"/>
<path opacity="0.4" d="M1001.77 503.283L1001.38 506.421H963.656L964.045 503.283H1001.77Z" fill="white"/>
<path d="M1097.93 503.283L1097.54 506.421H1001.38L1001.77 503.283H1097.93Z" fill="#407BFF"/>
<path opacity="0.5" d="M1097.93 503.283L1097.54 506.421H1001.38L1001.77 503.283H1097.93Z" fill="black"/>
<path d="M1111.87 446.502H1015.72L1001.79 503.283H1097.93L1111.87 446.502Z" fill="#407BFF"/>
<path opacity="0.5" d="M1111.87 446.502H1015.72L1001.79 503.283H1097.93L1111.87 446.502Z" fill="black"/>
<path d="M1149 492.116C1149 492.116 1134.85 467.72 1154.44 448.305C1154.44 448.305 1159.56 451.651 1159.48 456.086C1159.41 460.522 1154 461.715 1155.15 465.451C1156.31 469.186 1161.43 472.882 1158.07 475.982C1154.71 479.082 1158.62 481.831 1158.38 485.618C1158.15 489.405 1149 492.116 1149 492.116Z" fill="#407BFF"/>
<path d="M1150.08 494.347C1150.08 494.347 1155.81 466.734 1131.07 454.504C1131.07 454.504 1127.25 459.29 1128.75 463.583C1130.24 467.876 1135.72 467.188 1135.8 471.118C1135.88 475.048 1132.2 480.132 1136.36 482.013C1140.52 483.893 1137.66 487.745 1139.1 491.273C1140.54 494.801 1150.08 494.347 1150.08 494.347Z" fill="#407BFF"/>
<path opacity="0.5" d="M1150.08 494.347C1150.08 494.347 1155.81 466.734 1131.07 454.504C1131.07 454.504 1127.25 459.29 1128.75 463.583C1130.24 467.876 1135.72 467.188 1135.8 471.118C1135.88 475.048 1132.2 480.132 1136.36 482.013C1140.52 483.893 1137.66 487.745 1139.1 491.273C1140.54 494.801 1150.08 494.347 1150.08 494.347Z" fill="black"/>
<path d="M1128.4 488.225C1128.4 488.225 1128.88 506.383 1146.92 506.383C1164.96 506.383 1165.42 488.225 1165.42 488.225H1128.4Z" fill="#407BFF"/>
<path opacity="0.5" d="M1128.4 488.225C1128.4 488.225 1128.88 506.383 1146.92 506.383C1164.96 506.383 1165.42 488.225 1165.42 488.225H1128.4Z" fill="black"/>
<path d="M1007.31 389.2L1038.94 418.407L1059.28 380.462L1047.05 382.518L1039.74 339.056L1012.23 343.682L1019.53 387.144L1007.31 389.2Z" fill="#407BFF"/>
<path d="M1069.01 361.4C1069.01 351.769 1072.83 342.532 1079.64 335.722C1086.45 328.911 1095.69 325.085 1105.32 325.085V334.54C1101.8 334.538 1098.31 335.231 1095.05 336.579C1091.79 337.927 1088.83 339.903 1086.34 342.395C1083.85 344.887 1081.87 347.846 1080.52 351.102C1079.17 354.359 1078.48 357.849 1078.48 361.374L1069.01 361.4Z" fill="#407BFF"/>
<path d="M1069.01 361.4H1078.48C1078.48 368.52 1081.3 375.349 1086.34 380.384C1091.37 385.419 1098.2 388.247 1105.32 388.247C1110.03 388.256 1114.66 387.011 1118.73 384.642L1123.48 392.903C1117.96 396.091 1111.7 397.769 1105.32 397.768C1098.95 397.768 1092.68 396.09 1087.16 392.903C1081.64 389.715 1077.06 385.131 1073.87 379.61C1070.68 374.089 1069.01 367.827 1069.01 361.452V361.4Z" fill="#407BFF"/>
<path opacity="0.5" d="M1069.01 361.4H1078.48C1078.48 368.52 1081.3 375.349 1086.34 380.384C1091.37 385.419 1098.2 388.247 1105.32 388.247C1110.03 388.256 1114.66 387.011 1118.73 384.642L1123.48 392.903C1117.96 396.091 1111.7 397.769 1105.32 397.768C1098.95 397.768 1092.68 396.09 1087.16 392.903C1081.64 389.715 1077.06 385.131 1073.87 379.61C1070.68 374.089 1069.01 367.827 1069.01 361.452V361.4Z" fill="white"/>
<path d="M1105.32 334.54V325.059C1113.34 325.029 1121.15 327.653 1127.52 332.524C1133.89 337.395 1138.47 344.238 1140.54 351.985C1142.61 359.732 1142.07 367.948 1138.98 375.35C1135.89 382.752 1130.44 388.924 1123.48 392.903L1118.75 384.693C1123.9 381.758 1127.94 377.196 1130.23 371.721C1132.52 366.246 1132.93 360.168 1131.39 354.436C1129.86 348.704 1126.47 343.642 1121.75 340.042C1117.03 336.442 1111.26 334.507 1105.32 334.54Z" fill="#407BFF"/>
<path opacity="0.7" d="M1105.32 334.54V325.059C1113.34 325.029 1121.15 327.653 1127.52 332.524C1133.89 337.395 1138.47 344.238 1140.54 351.985C1142.61 359.732 1142.07 367.948 1138.98 375.35C1135.89 382.752 1130.44 388.924 1123.48 392.903L1118.75 384.693C1123.9 381.758 1127.94 377.196 1130.23 371.721C1132.52 366.246 1132.93 360.168 1131.39 354.436C1129.86 348.704 1126.47 343.642 1121.75 340.042C1117.03 336.442 1111.26 334.507 1105.32 334.54Z" fill="black"/>
<path d="M480 653H540C545.523 653 550 657.477 550 663V713C550 718.523 545.523 723 540 723H480V653Z" fill="#33579C"/>
<path d="M513 678L523 688L513 698" stroke="white" stroke-width="2" stroke-linecap="round" stroke-linejoin="round"/>
</svg>
